<?xml version="1.0" encoding="utf-8"?>
<svg version="1.1" xmlns:xlink="http://www.w3.org/1999/xlink" width="382px" height="187px" xmlns="http://www.w3.org/2000/svg">
  <g transform="matrix(1 0 0 1 -343 -183 )">
    <path d="M 343 183  L 725 183  L 725 370  L 343 370  L 343 183  " fill-rule="nonzero" fill="#cccccc" stroke="none" />
    <path d="M 356 196  L 712 196  L 712 357  L 356 357  L 356 196  " fill-rule="nonzero" fill="#ffffff" stroke="none" />
    <path d="M 555.665 239.10000000000002  C 547.8109999999999 239.10000000000002  541.64 232.92900000000003  541.64 225.07500000000002  C 541.64 217.221  547.8109999999999 211.05  555.665 211.05  C 563.519 211.05  569.6899999999999 217.221  569.6899999999999 225.07500000000002  C 569.6899999999999 232.92900000000003  563.519 239.10000000000002  555.665 239.10000000000002  " fill-rule="nonzero" fill="#cccccc" stroke="none" />
    <path d="M 361 353  L 361 269.4  L 447.75 231.39999999999998  L 569.2 308.3549738219895  L 638.6 254.2  L 708 308.3549738219895  L 708 353  L 361 353  " fill-rule="nonzero" fill="#169bd5" stroke="none" />
  </g>
</svg>