<?xml version="1.0" encoding="utf-8"?>
<svg version="1.1" xmlns:xlink="http://www.w3.org/1999/xlink" width="236px" height="715px" xmlns="http://www.w3.org/2000/svg">
  <g transform="matrix(1 0 0 1 -1303 -183 )">
    <path d="M 1303 183  L 1539 183  L 1539 898  L 1303 898  L 1303 183  " fill-rule="nonzero" fill="#cccccc" stroke="none" />
    <path d="M 1320 200  L 1522 200  L 1522 881  L 1320 881  L 1320 200  " fill-rule="nonzero" fill="#ffffff" stroke="none" />
    <path d="M 1443.42 325.65  C 1433.508 325.65  1425.72 317.86199999999997  1425.72 307.95  C 1425.72 298.038  1433.508 290.25  1443.42 290.25  C 1453.332 290.25  1461.1200000000001 298.038  1461.1200000000001 307.95  C 1461.1200000000001 317.86199999999997  1453.332 325.65  1443.42 325.65  " fill-rule="nonzero" fill="#cccccc" stroke="none" />
    <path d="M 1326 875  L 1326 507.04999999999995  L 1373.5 339.79999999999995  L 1440 473.6  L 1478 440.15  L 1516 473.6  L 1516 875  L 1326 875  " fill-rule="nonzero" fill="#169bd5" stroke="none" />
  </g>
</svg>