<?xml version="1.0" encoding="utf-8"?>
<svg version="1.1" xmlns:xlink="http://www.w3.org/1999/xlink" width="300px" height="368px" xmlns="http://www.w3.org/2000/svg">
  <g transform="matrix(1 0 0 1 -1163 -1052 )">
    <path d="M 1163 1052  L 1463 1052  L 1463 1420  L 1163 1420  L 1163 1052  " fill-rule="nonzero" fill="#cccccc" stroke="none" />
    <path d="M 1184 1073  L 1442 1073  L 1442 1399  L 1184 1399  L 1184 1073  " fill-rule="nonzero" fill="#ffffff" stroke="none" />
    <path d="M 1341.5 1152.2  C 1328.9 1152.2  1319 1142.3  1319 1129.7  C 1319 1117.1000000000001  1328.9 1107.2  1341.5 1107.2  C 1354.1 1107.2  1364 1117.1000000000001  1364 1129.7  C 1364 1142.3  1354.1 1152.2  1341.5 1152.2  " fill-rule="nonzero" fill="#cccccc" stroke="none" />
    <path d="M 1192 1392  L 1192 1220.95  L 1252.75 1143.2  L 1337.8 1205.4  L 1386.4 1189.85  L 1435 1205.4  L 1435 1392  L 1192 1392  " fill-rule="nonzero" fill="#169bd5" stroke="none" />
  </g>
</svg>