<?xml version="1.0" encoding="utf-8"?>
<svg version="1.1" xmlns:xlink="http://www.w3.org/1999/xlink" width="280px" height="93px" xmlns="http://www.w3.org/2000/svg">
  <defs>
    <mask fill="white" id="clip2">
      <path d="M 0 85.95454545454545  L 0 7.045454545454546  C 0 3.100000000000064  2.1999999999999886 0  5 0  L 275 0  C 277.79999999999995 0  280 3.100000000000064  280 7.045454545454546  L 280 85.95454545454545  C 280 89.89999999999993  277.79999999999995 93  275 93  L 5 93  C 2.1999999999999886 93  0 89.89999999999993  0 85.95454545454545  Z " fill-rule="evenodd" />
    </mask>
  </defs>
  <g transform="matrix(1 0 0 1 -429 -1514 )">
    <path d="M 0 85.95454545454545  L 0 7.045454545454546  C 0 3.100000000000064  2.1999999999999886 0  5 0  L 275 0  C 277.79999999999995 0  280 3.100000000000064  280 7.045454545454546  L 280 85.95454545454545  C 280 89.89999999999993  277.79999999999995 93  275 93  L 5 93  C 2.1999999999999886 93  0 89.89999999999993  0 85.95454545454545  Z " fill-rule="nonzero" fill="#d8fa91" stroke="none" transform="matrix(1 0 0 1 429 1514 )" />
    <path d="M 0 85.95454545454545  L 0 7.045454545454546  C 0 3.100000000000064  2.1999999999999886 0  5 0  L 275 0  C 277.79999999999995 0  280 3.100000000000064  280 7.045454545454546  L 280 85.95454545454545  C 280 89.89999999999993  277.79999999999995 93  275 93  L 5 93  C 2.1999999999999886 93  0 89.89999999999993  0 85.95454545454545  Z " stroke-width="2" stroke="#797979" fill="none" transform="matrix(1 0 0 1 429 1514 )" mask="url(#clip2)" />
  </g>
</svg>