<?xml version="1.0" encoding="utf-8"?>
<svg version="1.1" xmlns:xlink="http://www.w3.org/1999/xlink" width="355px" height="84px" xmlns="http://www.w3.org/2000/svg">
  <defs>
    <mask fill="white" id="clip1">
      <path d="M 0 76.36363636363636  L 0 7.636363636363637  C 0 3.3600000000000696  3.015444015444 0  6.853281853281853 0  L 348.1467181467182 0  C 351.9845559845559 0  355 3.3600000000000696  355 7.636363636363637  L 355 76.36363636363636  C 355 80.63999999999993  351.9845559845559 84  348.1467181467182 84  L 248.0888030888031 84  L 6.853281853281853 84  C 3.015444015444 84  0 80.63999999999993  0 76.36363636363636  Z " fill-rule="evenodd" />
    </mask>
  </defs>
  <g transform="matrix(1 0 0 1 -447 -929 )">
    <path d="M 0 76.36363636363636  L 0 7.636363636363637  C 0 3.3600000000000696  3.015444015444 0  6.853281853281853 0  L 348.1467181467182 0  C 351.9845559845559 0  355 3.3600000000000696  355 7.636363636363637  L 355 76.36363636363636  C 355 80.63999999999993  351.9845559845559 84  348.1467181467182 84  L 248.0888030888031 84  L 6.853281853281853 84  C 3.015444015444 84  0 80.63999999999993  0 76.36363636363636  Z " fill-rule="nonzero" fill="#d8fa91" stroke="none" transform="matrix(1 0 0 1 447 929 )" />
    <path d="M 0 76.36363636363636  L 0 7.636363636363637  C 0 3.3600000000000696  3.015444015444 0  6.853281853281853 0  L 348.1467181467182 0  C 351.9845559845559 0  355 3.3600000000000696  355 7.636363636363637  L 355 76.36363636363636  C 355 80.63999999999993  351.9845559845559 84  348.1467181467182 84  L 248.0888030888031 84  L 6.853281853281853 84  C 3.015444015444 84  0 80.63999999999993  0 76.36363636363636  Z " stroke-width="2" stroke="#797979" fill="none" transform="matrix(1 0 0 1 447 929 )" mask="url(#clip1)" />
  </g>
</svg>