<?xml version="1.0" encoding="utf-8"?>
<svg version="1.1" xmlns:xlink="http://www.w3.org/1999/xlink" width="1300px" height="874px" xmlns="http://www.w3.org/2000/svg">
  <g transform="matrix(1 0 0 1 -300 -50 )">
    <path d="M 300 50  L 1600 50  L 1600 924  L 300 924  L 300 50  " fill-rule="nonzero" fill="#cccccc" stroke="none" />
    <path d="M 361 111  L 1539 111  L 1539 863  L 361 863  L 361 111  " fill-rule="nonzero" fill="#ffffff" stroke="none" />
    <path d="M 1041.55 312.2  C 1004.842 312.2  976 283.358  976 246.64999999999998  C 976 209.94199999999998  1004.842 181.1  1041.55 181.1  C 1078.258 181.1  1107.1 209.94199999999998  1107.1 246.64999999999998  C 1107.1 283.358  1078.258 312.2  1041.55 312.2  " fill-rule="nonzero" fill="#cccccc" stroke="none" />
    <path d="M 383 841  L 383 451.59999999999997  L 666.5 274.6  L 1063.4 555.4036923076924  L 1290.2 380.8  L 1517 555.4036923076924  L 1517 841  L 383 841  " fill-rule="nonzero" fill="#169bd5" stroke="none" />
  </g>
</svg>