<?xml version="1.0" encoding="utf-8"?>
<svg version="1.1" xmlns:xlink="http://www.w3.org/1999/xlink" width="282px" height="84px" xmlns="http://www.w3.org/2000/svg">
  <defs>
    <mask fill="white" id="clip1">
      <path d="M 0 76.36363636363636  L 0 7.636363636363637  C 0 3.3600000000000696  2.3953667953667828 0  5.444015444015444 0  L 276.5559845559846 0  C 279.60463320463316 0  282 3.3600000000000696  282 7.636363636363637  L 282 76.36363636363636  C 282 80.63999999999993  279.60463320463316 84  276.5559845559846 84  L 197.0733590733591 84  L 5.444015444015444 84  C 2.3953667953667828 84  0 80.63999999999993  0 76.36363636363636  Z " fill-rule="evenodd" />
    </mask>
  </defs>
  <g transform="matrix(1 0 0 1 -373 -720 )">
    <path d="M 0 76.36363636363636  L 0 7.636363636363637  C 0 3.3600000000000696  2.3953667953667828 0  5.444015444015444 0  L 276.5559845559846 0  C 279.60463320463316 0  282 3.3600000000000696  282 7.636363636363637  L 282 76.36363636363636  C 282 80.63999999999993  279.60463320463316 84  276.5559845559846 84  L 197.0733590733591 84  L 5.444015444015444 84  C 2.3953667953667828 84  0 80.63999999999993  0 76.36363636363636  Z " fill-rule="nonzero" fill="#ffffff" stroke="none" transform="matrix(1 0 0 1 373 720 )" />
    <path d="M 0 76.36363636363636  L 0 7.636363636363637  C 0 3.3600000000000696  2.3953667953667828 0  5.444015444015444 0  L 276.5559845559846 0  C 279.60463320463316 0  282 3.3600000000000696  282 7.636363636363637  L 282 76.36363636363636  C 282 80.63999999999993  279.60463320463316 84  276.5559845559846 84  L 197.0733590733591 84  L 5.444015444015444 84  C 2.3953667953667828 84  0 80.63999999999993  0 76.36363636363636  Z " stroke-width="2" stroke="#797979" fill="none" transform="matrix(1 0 0 1 373 720 )" mask="url(#clip1)" />
  </g>
</svg>