<?xml version="1.0" encoding="utf-8"?>
<svg version="1.1" xmlns:xlink="http://www.w3.org/1999/xlink" width="190px" height="421px" xmlns="http://www.w3.org/2000/svg">
  <g transform="matrix(1 0 0 1 -356 -143 )">
    <path d="M 356 143  L 546 143  L 546 564  L 356 564  L 356 143  " fill-rule="nonzero" fill="#cccccc" stroke="none" />
    <path d="M 369 156  L 533 156  L 533 551  L 369 551  L 369 156  " fill-rule="nonzero" fill="#ffffff" stroke="none" />
    <path d="M 469.05 234.65  C 461.07 234.65  454.8 228.38  454.8 220.4  C 454.8 212.42000000000002  461.07 206.15  469.05 206.15  C 477.03000000000003 206.15  483.3 212.42000000000002  483.3 220.4  C 483.3 228.38  477.03000000000003 234.65  469.05 234.65  " fill-rule="nonzero" fill="#cccccc" stroke="none" />
    <path d="M 374 546  L 374 334.25  L 412.5 238  L 466.4 315  L 497.2 295.75  L 528 315  L 528 546  L 374 546  " fill-rule="nonzero" fill="#169bd5" stroke="none" />
  </g>
</svg>