<?xml version="1.0" encoding="utf-8"?>
<svg version="1.1" xmlns:xlink="http://www.w3.org/1999/xlink" width="337px" height="222px" xmlns="http://www.w3.org/2000/svg">
  <g transform="matrix(1 0 0 1 -1188 -166 )">
    <path d="M 1188 166  L 1525 166  L 1525 388  L 1188 388  L 1188 166  " fill-rule="nonzero" fill="#cccccc" stroke="none" />
    <path d="M 1204 182  L 1509 182  L 1509 372  L 1204 372  L 1204 182  " fill-rule="nonzero" fill="#ffffff" stroke="none" />
    <path d="M 1379.8899999999999 232.60000000000002  C 1370.566 232.60000000000002  1363.24 225.27400000000003  1363.24 215.95000000000002  C 1363.24 206.626  1370.566 199.3  1379.8899999999999 199.3  C 1389.214 199.3  1396.54 206.626  1396.54 215.95000000000002  C 1396.54 225.27400000000003  1389.214 232.60000000000002  1379.8899999999999 232.60000000000002  " fill-rule="nonzero" fill="#cccccc" stroke="none" />
    <path d="M 1210 367  L 1210 268.55  L 1283.5 223.79999999999998  L 1386.4 296.24985163204747  L 1445.2 250.64999999999998  L 1504 296.24985163204747  L 1504 367  L 1210 367  " fill-rule="nonzero" fill="#169bd5" stroke="none" />
  </g>
</svg>