<?xml version="1.0" encoding="utf-8"?>
<svg version="1.1" xmlns:xlink="http://www.w3.org/1999/xlink" width="1526px" height="1527px" xmlns="http://www.w3.org/2000/svg">
  <g transform="matrix(1 0 0 1 -190 0 )">
    <path d="M 190 0  L 1716 0  L 1716 1527  L 190 1527  L 190 0  " fill-rule="nonzero" fill="#cccccc" stroke="none" />
    <path d="M 297 107  L 1609 107  L 1609 1420  L 297 1420  L 297 107  " fill-rule="nonzero" fill="#ffffff" stroke="none" />
    <path d="M 1097.97 457.95  C 1033.878 457.95  983.52 407.592  983.52 343.5  C 983.52 279.408  1033.878 229.04999999999998  1097.97 229.04999999999998  C 1162.0620000000001 229.04999999999998  1212.42 279.408  1212.42 343.5  C 1212.42 407.592  1162.0620000000001 457.95  1097.97 457.95  " fill-rule="nonzero" fill="#cccccc" stroke="none" />
    <path d="M 335 1382  L 335 701.65  L 644 392.4  L 1076.6 639.8000000000001  L 1323.8000000000002 577.9499999999999  L 1571 639.8000000000001  L 1571 1382  L 335 1382  " fill-rule="nonzero" fill="#169bd5" stroke="none" />
  </g>
</svg>