<?xml version="1.0" encoding="utf-8"?>
<svg version="1.1" xmlns:xlink="http://www.w3.org/1999/xlink" width="297px" height="205px" xmlns="http://www.w3.org/2000/svg">
  <g transform="matrix(1 0 0 1 -462 -526 )">
    <path d="M 462 526  L 759 526  L 759 731  L 462 731  L 462 526  " fill-rule="nonzero" fill="#cccccc" stroke="none" />
    <path d="M 476 540  L 745 540  L 745 717  L 476 717  L 476 540  " fill-rule="nonzero" fill="#ffffff" stroke="none" />
    <path d="M 631.815 587.5  C 623.205 587.5  616.44 580.735  616.44 572.125  C 616.44 563.515  623.205 556.75  631.815 556.75  C 640.4250000000001 556.75  647.19 563.515  647.19 572.125  C 647.19 580.735  640.4250000000001 587.5  631.815 587.5  " fill-rule="nonzero" fill="#cccccc" stroke="none" />
    <path d="M 481 712  L 481 620.15  L 545.75 578.4  L 636.4 642.8383838383838  L 688.2 603.45  L 740 642.8383838383838  L 740 712  L 481 712  " fill-rule="nonzero" fill="#169bd5" stroke="none" />
  </g>
</svg>