<?xml version="1.0" encoding="utf-8"?>
<svg version="1.1" xmlns:xlink="http://www.w3.org/1999/xlink" width="294px" height="205px" xmlns="http://www.w3.org/2000/svg">
  <g transform="matrix(1 0 0 1 -1150 -526 )">
    <path d="M 1150 526  L 1444 526  L 1444 731  L 1150 731  L 1150 526  " fill-rule="nonzero" fill="#cccccc" stroke="none" />
    <path d="M 1164 540  L 1430 540  L 1430 717  L 1164 717  L 1164 540  " fill-rule="nonzero" fill="#ffffff" stroke="none" />
    <path d="M 1318.255 587.5  C 1309.6450000000002 587.5  1302.88 580.735  1302.88 572.125  C 1302.88 563.515  1309.6450000000002 556.75  1318.255 556.75  C 1326.865 556.75  1333.63 563.515  1333.63 572.125  C 1333.63 580.735  1326.865 587.5  1318.255 587.5  " fill-rule="nonzero" fill="#cccccc" stroke="none" />
    <path d="M 1169 712  L 1169 620.15  L 1233 578.4  L 1322.6 642.1326530612245  L 1373.8 603.45  L 1425 642.1326530612245  L 1425 712  L 1169 712  " fill-rule="nonzero" fill="#169bd5" stroke="none" />
  </g>
</svg>