<?xml version="1.0" encoding="utf-8"?>
<svg version="1.1" xmlns:xlink="http://www.w3.org/1999/xlink" width="300px" height="205px" xmlns="http://www.w3.org/2000/svg">
  <g transform="matrix(1 0 0 1 -803 -526 )">
    <path d="M 803 526  L 1103 526  L 1103 731  L 803 731  L 803 526  " fill-rule="nonzero" fill="#cccccc" stroke="none" />
    <path d="M 817 540  L 1089 540  L 1089 717  L 817 717  L 817 540  " fill-rule="nonzero" fill="#ffffff" stroke="none" />
    <path d="M 974.375 587.5  C 965.765 587.5  959 580.735  959 572.125  C 959 563.515  965.765 556.75  974.375 556.75  C 982.985 556.75  989.75 563.515  989.75 572.125  C 989.75 580.735  982.985 587.5  974.375 587.5  " fill-rule="nonzero" fill="#cccccc" stroke="none" />
    <path d="M 822 712  L 822 620.15  L 887.5 578.4  L 979.2 643.53  L 1031.6 603.45  L 1084 643.53  L 1084 712  L 822 712  " fill-rule="nonzero" fill="#169bd5" stroke="none" />
  </g>
</svg>