<?xml version="1.0" encoding="utf-8"?>
<svg version="1.1" xmlns:xlink="http://www.w3.org/1999/xlink" width="300px" height="379px" xmlns="http://www.w3.org/2000/svg">
  <g transform="matrix(1 0 0 1 -471 -812 )">
    <path d="M 471 812  L 771 812  L 771 1191  L 471 1191  L 471 812  " fill-rule="nonzero" fill="#cccccc" stroke="none" />
    <path d="M 492 833  L 750 833  L 750 1170  L 492 1170  L 492 833  " fill-rule="nonzero" fill="#ffffff" stroke="none" />
    <path d="M 649.5 913.85  C 636.9 913.85  627 903.95  627 891.35  C 627 878.75  636.9 868.85  649.5 868.85  C 662.1 868.85  672 878.75  672 891.35  C 672 903.95  662.1 913.85  649.5 913.85  " fill-rule="nonzero" fill="#cccccc" stroke="none" />
    <path d="M 500 1163  L 500 985.9  L 560.75 905.4  L 645.8 969.8  L 694.4 953.7  L 743 969.8  L 743 1163  L 500 1163  " fill-rule="nonzero" fill="#169bd5" stroke="none" />
  </g>
</svg>