<?xml version="1.0" encoding="utf-8"?>
<svg version="1.1" xmlns:xlink="http://www.w3.org/1999/xlink" width="1565px" height="2417px" xmlns="http://www.w3.org/2000/svg">
  <g transform="matrix(1 0 0 1 -170 0 )">
    <path d="M 170 0  L 1735 0  L 1735 2417  L 170 2417  L 170 0  " fill-rule="nonzero" fill="#cccccc" stroke="none" />
    <path d="M 280 110  L 1625 110  L 1625 2307  L 280 2307  L 280 110  " fill-rule="nonzero" fill="#ffffff" stroke="none" />
    <path d="M 1101.1750000000002 597.3  C 1035.4450000000002 597.3  983.8000000000001 545.655  983.8000000000001 479.92499999999995  C 983.8000000000001 414.195  1035.4450000000002 362.55  1101.1750000000002 362.55  C 1166.9050000000002 362.55  1218.5500000000002 414.195  1218.5500000000002 479.92499999999995  C 1218.5500000000002 545.655  1166.9050000000002 597.3  1101.1750000000002 597.3  " fill-rule="nonzero" fill="#cccccc" stroke="none" />
    <path d="M 319 2268  L 319 1102.55  L 635.75 572.8  L 1079.1999999999998 996.6000000000001  L 1332.6 890.6499999999999  L 1586 996.6000000000001  L 1586 2268  L 319 2268  " fill-rule="nonzero" fill="#169bd5" stroke="none" />
  </g>
</svg>